<svg width="133" height="19" viewBox="0 0 133 19" fill="none" xmlns="http://www.w3.org/2000/svg">
<path d="M15.1621 15.1069C15.4958 15.1069 15.6626 15.2941 15.6626 15.6685C15.6626 15.9777 15.4266 16.2869 14.9546 16.5962C14.0757 17.174 13.3351 17.5524 12.7329 17.7314C11.6017 18.0651 10.4136 18.2319 9.16846 18.2319C7.92334 18.2319 6.72298 18.0122 5.56738 17.5728C4.41992 17.1252 3.43929 16.5026 2.62549 15.7051C0.924642 14.0286 0.0742188 11.8639 0.0742188 9.21094C0.0742188 7.93327 0.31429 6.76139 0.794434 5.69531C1.27458 4.62109 1.93783 3.7015 2.78418 2.93652C4.57454 1.31706 6.82471 0.507324 9.53467 0.507324C11.0565 0.507324 12.3952 0.767741 13.5508 1.28857C14.7796 1.83382 15.394 2.29769 15.394 2.68018C15.394 2.8348 15.3411 2.96908 15.2354 3.08301C15.1377 3.19694 15.0238 3.25391 14.8936 3.25391C14.6331 3.25391 14.3971 3.13997 14.1855 2.91211C13.974 2.67611 13.6851 2.46452 13.3188 2.27734C12.9608 2.09017 12.5661 1.92741 12.1348 1.78906C11.2559 1.52051 10.4543 1.38623 9.72998 1.38623C9.01383 1.38623 8.41976 1.43506 7.94775 1.53271V17.1821C8.51742 17.2798 9.02197 17.3286 9.46143 17.3286C9.90088 17.3286 10.3485 17.3001 10.8042 17.2432C11.2599 17.1862 11.7075 17.0926 12.147 16.9624C13.1317 16.6694 13.8722 16.2381 14.3687 15.6685C14.5477 15.4569 14.6901 15.3104 14.7959 15.229C14.9017 15.1476 15.0238 15.1069 15.1621 15.1069ZM17.5181 11.4082C17.5181 10.4316 17.693 9.5446 18.043 8.74707C18.401 7.94141 18.8893 7.24154 19.5078 6.64746C20.8424 5.37793 22.5189 4.74316 24.5371 4.74316C26.596 4.74316 28.2725 5.40234 29.5664 6.7207C30.8034 7.96582 31.4219 9.54053 31.4219 11.4448C31.4219 13.3573 30.7871 14.9564 29.5176 16.2422C28.2074 17.5687 26.5309 18.2319 24.4883 18.2319C22.4945 18.2319 20.8424 17.6012 19.5322 16.3398C18.1895 15.0378 17.5181 13.3939 17.5181 11.4082ZM24.1465 17.3164C24.2116 17.3245 24.2767 17.3286 24.3418 17.3286H24.5127C26.1566 17.3286 27.536 16.82 28.6509 15.8027C29.839 14.7041 30.4331 13.2637 30.4331 11.4814C30.4331 9.73991 29.8757 8.32796 28.7607 7.24561C27.6621 6.17139 26.242 5.63428 24.5005 5.63428H24.3174C24.2604 5.63428 24.2035 5.63835 24.1465 5.64648V17.3164ZM43.7998 17.3286C42.7826 17.9308 41.7043 18.2319 40.5649 18.2319C39.4338 18.2319 38.4368 18.0651 37.5742 17.7314C36.7197 17.3896 35.9873 16.9176 35.377 16.3154C34.1074 15.054 33.4727 13.4142 33.4727 11.396C33.4727 9.52425 34.0993 7.96582 35.3525 6.7207C36.6872 5.40234 38.4287 4.74316 40.5771 4.74316C41.7165 4.74316 42.7907 4.99137 43.7998 5.48779V0.727051H48.8291V18H43.7998V17.3286ZM40.333 5.63428C40.0807 5.63428 39.8407 5.65055 39.6128 5.68311V17.2554C39.9058 17.3042 40.2231 17.3286 40.5649 17.3286C41.6961 17.3286 42.7744 16.9705 43.7998 16.2544V6.57422C42.7012 5.94759 41.5456 5.63428 40.333 5.63428ZM64.1489 15.0337C64.4663 15.0337 64.625 15.1802 64.625 15.4731C64.625 15.6929 64.4826 15.9533 64.1978 16.2544C62.9119 17.5728 61.1501 18.2319 58.9121 18.2319C56.902 18.2319 55.2093 17.6257 53.834 16.4131C52.4098 15.1517 51.6978 13.5566 51.6978 11.6279C51.6978 9.65853 52.3407 8.03906 53.6265 6.76953C54.9855 5.41862 56.7922 4.74316 59.0464 4.74316C60.853 4.74316 62.3708 5.29248 63.5996 6.39111C64.9261 7.57113 65.5894 9.12142 65.5894 11.042C65.5894 11.3187 65.5812 11.6117 65.5649 11.9209H57.5083V17.1577C58.0617 17.2716 58.6842 17.3286 59.376 17.3286C60.8408 17.3286 62.09 16.8444 63.1235 15.876C63.3351 15.6644 63.4857 15.4976 63.5752 15.3755C63.7624 15.1476 63.9536 15.0337 64.1489 15.0337ZM60.8896 5.86621C60.3607 5.71159 59.7625 5.63428 59.0952 5.63428C58.4279 5.63428 57.8989 5.67904 57.5083 5.76855V11.0298H60.8896V5.86621ZM68.6899 0.727051H73.939V18H68.6899V0.727051ZM76.8198 11.4082C76.8198 10.4316 76.9948 9.5446 77.3447 8.74707C77.7028 7.94141 78.1911 7.24154 78.8096 6.64746C80.1442 5.37793 81.8206 4.74316 83.8389 4.74316C85.8978 4.74316 87.5742 5.40234 88.8682 6.7207C90.1051 7.96582 90.7236 9.54053 90.7236 11.4448C90.7236 13.3573 90.0889 14.9564 88.8193 16.2422C87.5091 17.5687 85.8327 18.2319 83.79 18.2319C81.7962 18.2319 80.1442 17.6012 78.834 16.3398C77.4912 15.0378 76.8198 13.3939 76.8198 11.4082ZM83.4482 17.3164C83.5133 17.3245 83.5785 17.3286 83.6436 17.3286H83.8145C85.4583 17.3286 86.8377 16.82 87.9526 15.8027C89.1408 14.7041 89.7349 13.2637 89.7349 11.4814C89.7349 9.73991 89.1774 8.32796 88.0625 7.24561C86.9639 6.17139 85.5438 5.63428 83.8022 5.63428H83.6191C83.5622 5.63428 83.5052 5.63835 83.4482 5.64648V17.3164ZM92.7378 11.4082C92.7378 10.4316 92.9128 9.5446 93.2627 8.74707C93.6208 7.94141 94.109 7.24154 94.7275 6.64746C96.0622 5.37793 97.7386 4.74316 99.7568 4.74316C101.816 4.74316 103.492 5.40234 104.786 6.7207C106.023 7.96582 106.642 9.54053 106.642 11.4448C106.642 13.3573 106.007 14.9564 104.737 16.2422C103.427 17.5687 101.751 18.2319 99.708 18.2319C97.7142 18.2319 96.0622 17.6012 94.752 16.3398C93.4092 15.0378 92.7378 13.3939 92.7378 11.4082ZM99.3662 17.3164C99.4313 17.3245 99.4964 17.3286 99.5615 17.3286H99.7324C101.376 17.3286 102.756 16.82 103.871 15.8027C105.059 14.7041 105.653 13.2637 105.653 11.4814C105.653 9.73991 105.095 8.32796 103.98 7.24561C102.882 6.17139 101.462 5.63428 99.7202 5.63428H99.5371C99.4801 5.63428 99.4232 5.63835 99.3662 5.64648V17.3164ZM123.915 8.33203C123.931 8.52734 123.939 8.72266 123.939 8.91797V18H118.702V6.15918C118.613 6.11849 118.507 6.09814 118.385 6.09814H117.994C117.359 6.09814 116.619 6.53353 115.772 7.4043C115.512 7.67285 115.264 7.96989 115.028 8.29541V18H109.779V4.96289H115.028V6.92822C116.403 5.47152 117.941 4.74316 119.642 4.74316C121.839 4.74316 123.194 5.55697 123.707 7.18457C124.407 6.37891 125.176 5.77262 126.014 5.36572C126.861 4.95068 127.711 4.74316 128.565 4.74316C130.022 4.74316 131.1 5.08903 131.8 5.78076C132.5 6.47249 132.85 7.51823 132.85 8.91797V18H127.613V6.14697C127.54 6.11442 127.357 6.09814 127.064 6.09814C126.771 6.09814 126.498 6.15511 126.246 6.26904C126.002 6.37484 125.75 6.52539 125.489 6.7207C124.92 7.13574 124.395 7.67285 123.915 8.33203Z" fill="#324A32"/>
</svg>
